<?xml version="1.0" encoding="UTF-8"?>
<svg version="1.1" xmlns="http://www.w3.org/2000/svg" width="54" height="56">
<path d="M0 0 C17.82 0 35.64 0 54 0 C54 18.48 54 36.96 54 56 C36.18 56 18.36 56 0 56 C0 37.52 0 19.04 0 0 Z " fill="#DC2727" transform="translate(0,0)"/>
<path d="M0 0 C0.99 0.33 1.98 0.66 3 1 C2.34 3.97 1.68 6.94 1 10 C3.97 10 6.94 10 10 10 C10.90234375 12.07421875 10.90234375 12.07421875 11 15 C9.18392567 17.60743634 6.89370853 19.66778816 4.5625 21.8125 C3.62567383 22.7087207 3.62567383 22.7087207 2.66992188 23.62304688 C1.12638498 25.09588743 -0.43515877 26.54981471 -2 28 C-2.99 27.67 -3.98 27.34 -5 27 C-4.34 24.03 -3.68 21.06 -3 18 C-5.97 18 -8.94 18 -12 18 C-12.90234375 15.92578125 -12.90234375 15.92578125 -13 13 C-11.18392567 10.39256366 -8.89370853 8.33221184 -6.5625 6.1875 C-5.93794922 5.59001953 -5.31339844 4.99253906 -4.66992188 4.37695312 C-3.12638498 2.90411257 -1.56484123 1.45018529 0 0 Z " fill="#FAE2E2" transform="translate(27,14)"/>
<path d="M0 0 C1 3 1 3 1 7 C3.97 7.33 6.94 7.66 10 8 C9.06862408 9.29608947 8.1296434 10.58671632 7.1875 11.875 C6.66542969 12.59429687 6.14335937 13.31359375 5.60546875 14.0546875 C4 16 4 16 1 18 C1 15.69 1 13.38 1 11 C-1.97 10.67 -4.94 10.34 -8 10 C-7.04367001 8.70684939 -6.08486149 7.41553147 -5.125 6.125 C-4.59132813 5.40570312 -4.05765625 4.68640625 -3.5078125 3.9453125 C-2 2 -2 2 0 0 Z " fill="#DD2E2E" transform="translate(25,19)"/>
<path d="M0 0 C0.99 0.33 1.98 0.66 3 1 C2.67 2.65 2.34 4.3 2 6 C-1 7 -1 7 -3 7 C-4.57840572 8.55705194 -4.57840572 8.55705194 -6.125 10.5 C-6.66382813 11.1496875 -7.20265625 11.799375 -7.7578125 12.46875 C-8.16773438 12.9740625 -8.57765625 13.479375 -9 14 C-6.36 14.33 -3.72 14.66 -1 15 C-0.67 16.65 -0.34 18.3 0 20 C-0.66 19.67 -1.32 19.34 -2 19 C-2 18.34 -2 17.68 -2 17 C-5.63 17 -9.26 17 -13 17 C-11.875 11.375 -11.875 11.375 -9.27734375 8.88671875 C-8.73916016 8.36142578 -8.20097656 7.83613281 -7.64648438 7.29492188 C-7.08251953 6.76447266 -6.51855469 6.23402344 -5.9375 5.6875 C-5.08575195 4.86282227 -5.08575195 4.86282227 -4.21679688 4.02148438 C-2.82009075 2.67172635 -1.41121163 1.33458475 0 0 Z " fill="#FBEAEA" transform="translate(27,14)"/>
<path d="M0 0 C0.33 0 0.66 0 1 0 C1 2.64 1 5.28 1 8 C-1.64 8 -4.28 8 -7 8 C-6.02133662 6.85373678 -5.04205413 5.70800212 -4.0625 4.5625 C-3.51722656 3.92441406 -2.97195312 3.28632812 -2.41015625 2.62890625 C-1.63204305 1.73008851 -0.84063472 0.84063472 0 0 Z " fill="#F7F3F5" transform="translate(53,48)"/>
<path d="M0 0 C2.64 0 5.28 0 8 0 C8 2.64 8 5.28 8 8 C6.85073734 7.04578192 5.70569459 6.08647955 4.5625 5.125 C3.92441406 4.59132813 3.28632812 4.05765625 2.62890625 3.5078125 C1 2 1 2 0 0 Z " fill="#F7F3F5" transform="translate(46,0)"/>
<path d="M0 0 C0.33 0.99 0.66 1.98 1 3 C0.01 4.485 0.01 4.485 -1 6 C-1.66 6 -2.32 6 -3 6 C-3.99 6.495 -3.99 6.495 -5 7 C-3.70700306 4.11562221 -2.34058637 2.12780579 0 0 Z " fill="#E24F4F" transform="translate(25,19)"/>
<path d="M0 0 C2.01920337 1.30406884 4.01924973 2.63823419 6 4 C6 4.33 6 4.66 6 5 C4.02 5 2.04 5 0 5 C0 3.35 0 1.7 0 0 Z " fill="#F7F4F5" transform="translate(0,51)"/>
<path d="M0 0 C1.98 0 3.96 0 6 0 C4.3545622 1.68762851 2.68711423 3.3540349 1 5 C0.67 5 0.34 5 0 5 C0 3.35 0 1.7 0 0 Z " fill="#F7F4F5" transform="translate(0,0)"/>
</svg>
